<svg width="361" height="361" viewBox="0 0 361 361" fill="none" xmlns="http://www.w3.org/2000/svg">
<g clip-path="url(#clip0)">
<path d="M360.856 180.387V181.467C360.832 184.179 360.754 186.878 360.623 189.566C358.284 235.558 338.443 278.913 305.167 310.747C271.891 342.582 227.699 360.484 181.649 360.785C135.599 361.086 91.1771 343.764 57.4874 312.368C23.7977 280.971 3.39143 237.879 0.450557 191.922C0.205117 188.105 0.0824335 184.26 0.0824535 180.387C0.0177062 143.026 11.613 106.575 33.2516 76.1183C34.9818 73.6641 36.7816 71.2548 38.6509 68.8906C39.9393 67.2462 41.2646 65.6387 42.6022 64.0435C73.0531 27.969 116.43 5.26662 163.427 0.80687C210.425 -3.65289 257.298 10.4853 293.99 40.1882C296.162 41.943 298.298 43.7591 300.384 45.6121C302.053 47.0969 303.693 48.6145 305.304 50.1647C337.045 80.5253 356.581 121.449 360.23 165.22C360.648 170.226 360.856 175.282 360.856 180.387Z" fill="#2C4BB8"/>
<path d="M38.6509 68.8906C38.7393 68.9277 38.8219 68.9773 38.8963 69.0379C39.8657 69.8355 38.6509 71.3694 38.7982 72.6333C38.97 74.2531 41.1296 74.609 42.7617 74.7685C44.3938 74.9403 46.4554 76.2534 45.6823 77.7014C41.5837 79.1125 37.436 77.7259 33.2515 76.1184C11.613 106.575 0.0177207 143.026 0.0824534 180.387C0.0824534 184.265 0.20513 188.11 0.450556 191.922C0.793657 192.172 1.16938 192.375 1.56726 192.523C2.79438 192.989 4.21784 192.904 5.3468 193.566C6.2426 194.094 6.84389 195.026 7.73968 195.517C10.3044 196.916 13.863 194.229 16.2559 195.898C16.8744 196.461 17.4603 197.059 18.0107 197.689C20.2195 199.604 23.8518 198.315 26.4042 199.751C28.0485 200.671 28.8953 202.512 29.7788 204.181C31.9753 208.353 35.534 212.452 40.2339 212.783C41.7162 212.715 43.2015 212.764 44.676 212.93C46.124 213.262 47.5475 214.525 47.3144 215.986C46.9094 218.501 48.1488 221.25 47.8175 223.766C47.2162 228.367 40.7001 230.38 40.1479 234.982C40.1461 235.994 40.0888 237.006 39.9762 238.013C39.6817 239.215 38.7736 240.197 38.4545 241.399C37.841 243.67 39.473 245.94 41.2524 247.461C43.044 248.995 45.1792 250.321 46.1609 252.456C47.1917 254.726 46.6885 257.364 47.0198 259.831C47.7561 265.218 52.4069 269.206 57.1927 271.783C58.7263 272.424 60.0881 273.416 61.1686 274.679C62.3957 276.458 62.273 278.802 62.6902 280.925C63.6964 286.116 68.065 290.398 68.1877 295.687C68.2736 299.455 66.1875 302.866 64.9358 306.412C63.6483 310.13 63.2654 314.101 63.8191 317.996C70.816 323.931 78.2533 329.325 86.0669 334.133C86.4919 333.505 86.8034 332.807 86.9872 332.071C87.1357 331.258 87.0332 330.419 86.6935 329.665C86.3538 328.911 85.7929 328.278 85.0852 327.85C86.404 327.352 87.6038 326.583 88.607 325.592C89.1 325.085 89.4255 324.439 89.5396 323.741C89.6537 323.044 89.5509 322.328 89.2452 321.69C91.4049 321.96 93.9696 322.095 95.3931 320.438C96.5343 319.113 96.4606 317.125 96.0066 315.444C95.5526 313.75 94.7918 312.118 94.7795 310.364C99.7833 310.607 104.799 310.439 109.775 309.861C109.055 307.433 107.417 305.382 105.21 304.142C107.468 303.762 109.517 301.062 110.229 298.89C110.844 296.674 110.878 294.337 110.327 292.104C110.156 291.53 110.131 290.923 110.253 290.337C110.616 289.559 111.255 288.942 112.045 288.607C115.776 286.459 119.506 284.316 123.236 282.177C123.902 281.841 124.507 281.397 125.028 280.864C126.194 279.477 126.022 277.403 125.421 275.697C124.819 273.992 123.862 272.384 123.629 270.593C122.942 265.23 128.685 261.377 130.624 256.321C131.283 254.303 131.639 252.198 131.679 250.075C131.839 247.793 131.851 245.154 130.108 243.694C128.427 242.283 125.813 242.602 124.059 241.289C122.451 240.086 121.899 237.767 120.144 236.798C118.549 235.914 116.561 236.479 114.782 236.061C111.665 235.337 109.701 231.742 106.511 231.411C104.719 231.214 102.682 232.098 101.21 231.055C99.9088 230.122 99.8597 228.269 99.6143 226.699C99.1786 224.252 98.0043 221.997 96.2493 220.238C94.4943 218.479 92.2428 217.299 89.7974 216.857C87.9444 216.562 85.9319 216.673 84.3489 215.654C82.7537 214.624 82.0297 212.697 80.7657 211.261C78.7533 208.967 75.5627 208.144 72.5808 207.445C68.5313 206.5 64.4859 205.551 60.4446 204.598C58.2971 204.083 55.5238 203.813 54.358 205.702C54.013 206.421 53.7733 207.186 53.6463 207.973C53.208 209.389 52.3338 210.631 51.1484 211.521C49.9629 212.411 48.5267 212.904 47.0444 212.93C46.0297 211.197 44.3858 209.923 42.455 209.372C41.1933 209.16 39.9471 208.865 38.7245 208.488C38.086 208.175 37.518 207.735 37.0554 207.196C36.5927 206.656 36.245 206.027 36.0337 205.348C35.8223 204.669 35.7517 203.954 35.8262 203.247C35.9006 202.54 36.1185 201.856 36.4666 201.236C37.1624 199.99 37.4301 198.551 37.2283 197.139C37.0266 195.727 36.3666 194.42 35.3499 193.419C33.2883 191.566 30.3064 191.112 27.5331 191.296C26.8091 189.713 28.024 187.934 29.3248 186.78C30.6378 185.639 32.2208 184.51 32.503 182.792C32.957 180.092 29.5088 178.043 26.8951 178.841C24.2813 179.651 22.6124 182.191 21.508 184.694C20.9724 186.171 20.2419 187.57 19.336 188.854C18.8718 189.489 18.241 189.984 17.5133 190.282C16.7856 190.581 15.9895 190.673 15.2129 190.548C13.0531 189.995 12.231 187.431 11.7524 185.271C10.9855 182.384 10.5977 179.41 10.5989 176.423C10.6176 173.407 11.8156 170.518 13.9366 168.373C17.5076 165.085 23.0051 165.404 27.8276 165.931C27.3111 165.242 27.0635 164.389 27.1313 163.53C27.1991 162.672 27.5775 161.868 28.1958 161.268C28.8412 160.695 29.6167 160.288 30.455 160.083C31.2932 159.878 32.169 159.88 33.0061 160.09C34.46 160.391 35.77 161.174 36.7243 162.311C38.0987 163.98 38.4913 166.25 39.5222 168.14C40.5652 170.042 42.8967 171.662 44.7988 170.644C46.4554 169.76 46.7131 167.478 46.3081 165.649C45.8909 163.833 45.0196 162.054 45.1669 160.189C45.4491 156.642 49.1428 154.495 52.3946 153.034C55.6465 151.574 59.3647 149.598 59.8801 146.064C59.9039 145.377 60.0364 144.698 60.2728 144.052C60.6326 143.475 61.1357 143.002 61.733 142.678C71.2187 136.407 80.8761 130.05 91.7239 126.627C92.2883 126.443 92.3497 126.639 92.9264 126.504C93.7363 126.038 93.1965 124.749 92.4233 124.234C91.6502 123.718 90.6195 123.314 90.4231 122.405C90.2881 121.743 90.6808 121.08 90.779 120.405C90.8046 119.998 90.73 119.59 90.5614 119.218C90.3928 118.846 90.1355 118.521 89.8121 118.271C89.4887 118.022 89.1091 117.855 88.7064 117.787C88.3038 117.718 87.8904 117.749 87.5026 117.877C86.6314 116.724 88.3493 115.386 89.7482 114.994C93.9368 113.846 98.2354 113.147 102.572 112.908C103.072 112.825 103.586 112.911 104.032 113.153C104.351 113.461 104.54 113.879 104.56 114.321C104.581 114.764 104.431 115.198 104.142 115.534C103.552 116.189 102.898 116.785 102.191 117.313C101.487 117.997 100.984 118.861 100.738 119.811C100.491 120.761 100.51 121.76 100.792 122.7C103.063 123.853 105.517 125.044 108.032 124.639C110.536 124.234 112.757 121.412 111.579 119.166C110.487 117.067 107.186 116.589 106.621 114.294C105.959 111.607 109.763 109.214 108.904 106.588C108.535 105.434 107.382 104.747 106.498 103.925C105.459 102.901 104.751 101.588 104.469 100.156C104.187 98.7249 104.342 97.2415 104.915 95.8996C103.479 96.1506 102.003 96.0543 100.611 95.6189C99.2194 95.1834 97.9519 94.4213 96.9146 93.3963C95.0003 91.4697 93.4787 88.4142 90.7544 88.5123C88.2634 88.5859 86.1159 91.4942 83.7844 90.6107C83.2076 90.3898 82.6064 89.9481 82.0541 90.2058C81.872 90.3229 81.7188 90.4798 81.6061 90.6647C81.4935 90.8497 81.4243 91.0578 81.4038 91.2733C80.8148 94.108 81.8333 97.3354 80.2871 99.7896C78.606 102.452 74.716 102.821 72.6789 105.226C71.5745 106.526 71.145 108.281 70.1265 109.656C69.108 111.03 66.9605 111.914 65.7335 110.711C66.3344 109.479 66.499 108.079 66.2002 106.742C65.9014 105.404 65.1571 104.207 64.0891 103.348C62.9589 102.606 61.7381 102.013 60.4568 101.581C59.0255 100.977 57.6636 100.22 56.395 99.3233C55.7628 98.9382 55.249 98.3862 54.9102 97.7281C54.6421 96.9005 54.6769 96.0045 55.0084 95.2002C55.6297 93.4279 56.7223 91.8585 58.1688 90.6607C59.6152 89.4629 61.3608 88.682 63.2178 88.4019C64.8376 88.1811 66.7274 88.2547 67.8072 87.0153C68.3717 86.3649 68.6662 85.3709 69.5007 85.1133C70.0263 85.0035 70.5735 85.0681 71.0591 85.2974C73.0839 86.0091 75.0964 86.7208 77.1211 87.4326C77.7963 87.7422 78.5421 87.8651 79.2809 87.7884C79.647 87.7412 79.9814 87.5563 80.2162 87.2714C80.4509 86.9865 80.5684 86.6229 80.5448 86.2545C80.3485 85.2483 78.8023 84.7697 78.9495 83.7512C79.0211 83.4184 79.1974 83.1173 79.4527 82.8922C81.6413 80.5642 84.3174 78.7488 87.2894 77.5757C90.2615 76.4025 93.456 75.9007 96.6446 76.1062C97.4055 77.3701 96.2029 78.8549 95.1844 79.9225C94.1781 81.0024 93.3683 82.9167 94.5954 83.7389C95.0904 83.9985 95.6443 84.1253 96.2029 84.107C97.6951 84.3072 99.1453 84.7464 100.498 85.4078C102.596 86.3158 104.658 87.3221 106.67 88.4019C106.374 87.0863 106.425 85.7162 106.817 84.4261C107.039 83.7928 107.489 83.2648 108.079 82.9449C108.668 82.625 109.356 82.5362 110.008 82.6958C111.211 83.1621 111.824 84.7574 113.113 84.9046C114.818 85.101 115.493 82.5731 114.782 81.0024C114.07 79.4317 112.646 78.1309 112.536 76.4007C112.45 75.2472 112.892 73.8115 111.971 73.112C111.644 72.8952 111.27 72.7605 110.879 72.7193C103.173 71.3081 95.4625 69.8929 87.748 68.4735C86.3737 68.2158 84.398 68.4121 84.3367 69.7988C84.2998 70.5841 84.9993 71.3572 84.6925 72.069C84.3612 72.8298 83.2813 72.7684 82.496 73.0384C81.9059 73.3061 81.419 73.7586 81.1091 74.3277C80.7991 74.8967 80.6828 75.5511 80.7779 76.1921C80.9877 77.4681 81.4827 78.6803 82.2259 79.7385C80.7166 79.1126 78.4464 79.0022 76.9371 78.3641C76.7175 76.6164 76.272 74.9046 75.6117 73.2715C75.574 73.0116 75.4798 72.7632 75.3357 72.5436C75.1916 72.3241 75.0011 72.1387 74.7777 72.0007C74.5543 71.8627 74.3033 71.7753 74.0425 71.7447C73.7816 71.7141 73.5172 71.741 73.2679 71.8235C71.28 72.1303 69.2921 72.4248 67.3041 72.7316C66.8049 72.7553 66.327 72.9405 65.9421 73.2593C65.169 74.0814 65.9297 75.3944 65.9052 76.5234C65.8333 77.1547 65.5667 77.7479 65.1423 78.2207C64.7179 78.6935 64.1567 79.0224 63.5369 79.1617C62.288 79.4153 60.9992 79.3986 59.7573 79.1126C56.9718 78.6831 54.1985 78.2536 51.4129 77.8241C53.8717 77.0406 56.0585 75.5771 57.7203 73.6029C58.8247 72.3021 59.4137 69.8724 57.8185 69.2589C57.3474 69.1295 56.8558 69.092 56.3705 69.1484C52.5909 69.173 49.6091 66.0193 46.0749 64.6817C44.9637 64.2671 43.7882 64.0512 42.6022 64.0436L38.6509 68.8906Z" fill="#178823"/>
<path d="M360.623 189.566C360.19 190.147 359.622 190.613 358.967 190.923C358.312 191.233 357.592 191.378 356.868 191.345C353.027 191.014 351.407 185.479 347.603 184.854C347.267 184.767 346.911 184.802 346.597 184.952C346.033 185.259 345.934 186.019 345.898 186.658C345.738 189.824 345.603 193.112 346.843 196.033C348.646 200.303 353.322 203.886 352.34 208.414C347.063 205.972 344.315 200.045 343.075 194.364C341.824 188.682 341.627 182.718 339.394 177.344C337.688 179.516 334.13 177.724 332.583 175.442C331.111 173.282 330.203 170.779 328.779 168.582C327.356 166.398 325.172 164.434 322.57 164.312C319.834 164.189 317.453 166.066 315.367 167.846C313.552 169.186 312.028 170.881 310.888 172.828C309.428 175.773 309.808 179.233 309.734 182.51C309.661 186.044 308.912 189.787 306.495 192.388C304.077 194.977 299.623 195.886 296.96 193.542C295.673 192.199 294.755 190.546 294.297 188.744C291.402 180.307 288.993 171.711 287.082 162.999C286.64 164.987 284.885 167.551 283.216 166.386C282.843 166.068 282.542 165.675 282.333 165.232C279.216 159.968 273.461 156.802 267.632 154.9C261.815 153.01 255.692 152.126 249.937 150.04C246.709 148.868 243.626 147.333 240.746 145.463C240.014 146.541 239.587 147.796 239.509 149.096C239.431 150.396 239.706 151.693 240.304 152.85C240.951 153.983 241.953 154.87 243.156 155.373C244.359 155.877 245.694 155.969 246.955 155.636C248.231 155.219 249.311 154.335 250.575 153.893C251.839 153.464 253.544 153.673 254.097 154.9C254.637 156.065 253.827 157.477 254.232 158.704C254.833 160.557 257.643 160.704 258.625 162.397C258.913 163.068 258.98 163.813 258.814 164.524C258.648 165.235 258.26 165.875 257.704 166.349C256.575 167.269 255.329 168.037 253.998 168.631C249.875 170.926 246.943 174.84 243.335 177.884C239.727 180.939 234.635 183.16 230.34 181.209C231.358 176.018 225.186 172.214 224.044 167.048C223.664 165.343 223.86 163.539 223.333 161.882C222.56 159.477 220.424 157.833 218.682 156.016C216.565 153.787 214.915 151.156 213.83 148.28C212.745 145.403 212.246 142.338 212.362 139.266C212.46 137.131 212.853 134.959 212.362 132.873C211.884 130.799 210.153 128.787 208.018 128.872C203.147 129.093 196.999 129.461 194.446 125.302C193.526 123.817 193.133 121.645 194.459 120.504C195.391 119.706 196.766 119.78 197.98 119.902C201.649 120.258 205.306 120.626 208.975 120.982C211.54 121.228 214.313 121.436 216.522 120.099C218.731 118.761 219.688 115.19 217.639 113.607C216.154 112.454 213.479 112.515 213.037 110.687C212.681 109.153 214.375 107.422 213.454 106.134C212.804 105.226 211.331 105.471 210.436 106.158C209.654 106.97 208.804 107.713 207.896 108.38C206.141 109.288 204.055 108.416 202.165 107.827C200.275 107.238 197.747 107.189 196.839 108.944C195.808 110.895 197.735 113.472 196.729 115.435C195.379 118.025 190.838 116.552 188.949 118.786C186.789 121.338 190.421 125.167 189.697 128.431C188.765 128.893 187.729 129.106 186.69 129.047C185.651 128.989 184.645 128.663 183.77 128.099C182.912 127.515 182.228 126.709 181.791 125.767C181.354 124.825 181.182 123.782 181.291 122.749C181.463 121.277 182.236 119.767 181.721 118.381C181.165 117.31 180.248 116.471 179.132 116.012C175.573 114.037 172.014 112.069 168.456 110.11C167.462 111.95 168.713 114.221 170.284 115.607C171.843 116.982 173.806 118.025 174.837 119.841C175.489 121.1 175.637 122.56 175.249 123.924C174.862 125.288 173.968 126.452 172.751 127.179C172.597 127.285 172.421 127.356 172.237 127.388C172.053 127.42 171.864 127.411 171.683 127.363C171.513 127.263 171.364 127.13 171.246 126.972C171.128 126.814 171.043 126.634 170.996 126.443C169.118 121.62 166.284 116.871 161.768 114.356C157.24 111.828 150.748 112.355 147.779 116.589C147.079 117.595 146.601 118.749 145.987 119.816C142.735 125.473 135.741 128.148 129.212 127.977C128.574 128.018 127.937 127.868 127.384 127.547C126.329 126.823 126.378 125.277 126.537 124.001C126.77 122.197 126.991 120.405 127.224 118.601C127.23 117.5 127.656 116.442 128.415 115.644C129.63 114.687 131.372 115.288 132.918 115.264C134.085 115.212 135.208 114.801 136.132 114.087C137.057 113.373 137.739 112.391 138.084 111.276C138.395 110.15 138.393 108.96 138.077 107.836C137.761 106.711 137.144 105.694 136.293 104.895C135.593 104.232 134.648 103.397 135.017 102.502C135.166 102.255 135.368 102.044 135.607 101.883C135.847 101.722 136.118 101.615 136.403 101.569C139.164 100.771 142.097 100.563 144.809 99.6057C147.533 98.6608 150.172 96.7219 150.822 93.9118C151.018 93.0528 151.104 92.0098 151.877 91.5803C152.268 91.4236 152.684 91.3404 153.104 91.3349C154.58 91.1234 155.923 90.3678 156.87 89.2167C157.817 88.0655 158.299 86.6019 158.221 85.1133C159.522 84.2053 161.351 84.8802 162.615 85.8496C163.866 86.8191 164.983 88.0953 166.517 88.5125C169.376 89.2978 172.137 86.7577 175.107 86.7454C176.358 86.7454 177.647 87.1872 178.813 86.7577C180.003 86.3282 180.715 85.1502 181.623 84.2789C182.543 83.3954 184.138 82.8677 184.985 83.8126C184.74 82.0333 184.506 80.2662 184.261 78.4992C185.707 78.8632 187.214 78.9136 188.68 78.6469C190.147 78.3802 191.54 77.8027 192.765 76.953C189.673 75.9099 186.593 74.8669 183.5 73.8238C183.175 73.7438 182.876 73.5834 182.629 73.3575C181.954 72.6335 182.629 71.5046 183.169 70.6824C184.482 68.7067 184.703 65.4549 182.543 64.4732C181.071 63.7982 179.389 64.6081 177.978 65.3935C175.72 66.6451 173.462 67.9091 171.204 69.1608C170.996 70.4492 172.567 71.1855 173.536 72.0445C174.127 72.5685 174.545 73.2591 174.736 74.0254C174.926 74.7917 174.881 75.5978 174.604 76.3375C174.328 77.0773 173.834 77.7161 173.188 78.1698C172.542 78.6236 171.773 78.871 170.984 78.8796C171.428 79.4601 171.737 80.1329 171.888 80.8485C172.039 81.5641 172.028 82.3043 171.855 83.015C170.346 83.1254 168.824 83.2358 167.302 83.3463C167.049 83.3967 166.789 83.3966 166.537 83.3461C166.284 83.2955 166.044 83.1955 165.83 83.0518C165.339 82.6223 165.412 81.8615 165.29 81.2234C165.088 80.4607 164.662 79.776 164.067 79.2576C163.472 78.7393 162.735 78.411 161.952 78.3151C160.389 78.1393 158.806 78.2854 157.301 78.7446C156.647 78.9751 155.931 78.9576 155.289 78.6955C154.924 78.4545 154.649 78.1012 154.503 77.6893C154.236 76.8478 154.191 75.9517 154.371 75.0875C154.552 74.2233 154.952 73.4204 155.534 72.7563C156.713 71.4476 158.011 70.2521 159.412 69.1853C162.587 66.4055 164.921 62.7923 166.149 58.7548C168.652 57.6995 171.241 56.276 173.757 55.2207C175.779 54.2834 177.899 53.5715 180.077 53.0978C182.126 52.7847 184.203 52.686 186.274 52.8032C189.096 52.8523 191.931 52.9014 194.753 52.9628C197.272 52.8569 199.79 53.2189 202.177 54.0304C204.496 54.9875 206.546 57.0614 206.705 59.5647C206.753 59.85 206.728 60.1429 206.631 60.4156C206.535 60.6883 206.37 60.9319 206.153 61.1231C205.827 61.3033 205.457 61.3883 205.085 61.3686C202.742 61.4422 201.748 62.0312 199.404 62.1171C200.889 63.7001 202.557 65.369 204.717 65.6512C208.521 66.1421 211.258 62.203 213.013 58.7793C213.075 59.6508 213.476 60.4632 214.129 61.0433C214.783 61.6233 215.637 61.925 216.51 61.884C217.45 61.7223 218.347 61.3717 219.148 60.8532C226.696 56.7282 235.151 54.5439 243.752 54.4967C243.668 53.8455 243.828 53.1862 244.202 52.6466C244.576 52.1069 245.137 51.7255 245.777 51.5761C247.531 51.2325 249.102 52.7419 249.949 54.3126C250.783 55.8833 251.311 57.6995 252.661 58.8775C253.998 60.0555 256.588 59.9942 257.115 58.3008C257.631 56.6687 255.925 55.2698 254.514 54.3004C253.09 53.3432 251.606 51.5639 252.563 50.1403C259.778 48.5328 267.055 46.9376 274.455 46.6185C275.712 46.6566 276.964 46.4395 278.136 45.9804C278.716 45.7347 279.199 45.3045 279.509 44.7565C279.82 44.2085 279.941 43.5733 279.854 42.9494C278.239 43.3262 276.549 43.2148 274.998 42.6293C273.447 42.0437 272.104 41.0105 271.141 39.6607C278.737 39.0349 286.689 38.4827 293.99 40.1884L300.384 45.6123C299.169 46.8762 297.549 48.0665 298.432 49.3304C298.724 49.6207 299.078 49.8411 299.466 49.975C299.855 50.1089 300.27 50.1529 300.678 50.1035C302.224 50.1281 303.77 50.1649 305.304 50.1649C337.045 80.5255 356.581 121.449 360.23 165.22C357.653 165.122 355.285 168.386 355.616 171.233C356.009 174.534 358.39 177.184 360.095 180.031C360.378 180.494 360.632 180.973 360.856 181.467L360.623 189.566Z" fill="#078340"/>
</g>
<defs>
<clipPath id="clip0">
<rect width="361" height="361" fill="white"/>
</clipPath>
</defs>
</svg>
