<svg width="974" height="656" viewBox="0 0 974 656" fill="none" xmlns="http://www.w3.org/2000/svg">
<path d="M307.638 442.615L227.09 363.249L207.115 343.566L147.495 284.822L73.589 363.718L0 442.285" fill="#195F76"/>
<path d="M703.6 441.99H159L226.38 368.95L350.87 222.93L359.26 213.09L471.87 81L549.79 204.41L551.83 207.64L650.96 364.62L703.6 441.99Z" fill="#195F76"/>
<path d="M974 442.615L839.483 283.895L773.539 206.09L709.804 286.003L651.67 358.918L585.18 442.285" fill="#195F76"/>
<path opacity="0.8" d="M207.115 343.566L171.622 367.363L129.717 350.855L73.589 363.718L147.495 284.822L207.115 343.566Z" fill="white"/>
<path opacity="0.8" d="M550.5 205.514L538.61 226.404L511.95 198.474L482.74 226.404L466.23 194.664L439.56 226.404L431.94 206.094L414.17 226.404L382.42 206.094L359.97 214.194L472.58 82.104L550.5 205.514Z" fill="white"/>
<path opacity="0.8" d="M839.483 283.895L806.555 324.187L779.888 292.441L739.253 325.457L709.804 286.003L773.539 206.09L839.483 283.895Z" fill="#FFFDFD"/>
</svg>
