<svg width="1409" height="877" viewBox="0 0 1409 877" fill="none" 
    xmlns="http://www.w3.org/2000/svg">
    <g clip-path="url(#clip0)">
        <path d="M1409 660.629C1375.55 726.385 1330.04 769.95 1278.93 797.673C1264.16 805.669 1248.81 812.484 1233 818.056C1140 851.002 1035.9 842.262 954.135 824.867C896.784 812.656 838.569 805.143 780.046 802.402C763.355 801.634 746.647 801.252 729.922 801.258C704.132 801.292 678.348 802.271 652.569 804.194C485.037 816.758 228.06 793.218 115 559.586L397.884 0.346436L503.167 276.245L536.767 364.313L629.372 234.609L677.188 167.64L894.946 422.457L956.493 283.722L1382.61 638.659L1406.37 658.444L1409 660.629Z" fill="#F2F2F2"/>
        <path opacity="0.1" d="M361 73.0088L394.671 0.346436L441.292 106.153L401.146 29.6664L361 73.0088Z" fill="black"/>
        <path opacity="0.1" d="M751 786C734.259 785.23 717.502 784.848 700.727 784.854L507 347L751 786Z" fill="black"/>
        <path opacity="0.1" d="M1381.76 649.608C1365.72 654.778 1349.81 660.317 1334 666.227L1005.88 323.189L1381.76 649.608Z" fill="black"/>
        <path opacity="0.1" d="M630 256.938L677.772 219L895 475L674.43 256.547L630 256.938Z" fill="black"/>
        <path opacity="0.1" d="M1237 803.995C1222.23 811.979 1206.87 818.783 1191.07 824.346L853 429.346L1237 803.995Z" fill="black"/>
        <path d="M1138.34 73.8892C1139.77 73.8892 1140.93 72.7477 1140.93 71.3396C1140.93 69.9315 1139.77 68.7901 1138.34 68.7901C1136.91 68.7901 1135.75 69.9315 1135.75 71.3396C1135.75 72.7477 1136.91 73.8892 1138.34 73.8892Z" fill="#F2F2F2"/>
        <path d="M332 422.078H327.663V417.346H325.337V422.078H321V424.617H325.337V429.346H327.663V424.617H332V422.078Z" fill="#F2F2F2"/>
        <path d="M1351 679.126H1346.66V674H1344.34V679.126H1340V681.876H1344.34V687H1346.66V681.876H1351V679.126Z" fill="#F2F2F2"/>
    </g>
    <defs>
        <clipPath id="clip0">
            <rect width="1409" height="877" fill="#D6ECEF"/>
        </clipPath>
    </defs>
</svg>
