<svg width="1313" height="541" viewBox="0 0 1313 541" fill="none"
    xmlns="http://www.w3.org/2000/svg">
    <path d="M414.711 540.857L306.129 422.358L279.201 392.97L198.831 305.26L99.2016 423.058L0 540.364" fill="url(#paint2_linear)"/>
    <path d="M948.487 539.924H214.34L305.171 430.87L472.99 212.851L484.3 198.159L636.104 0.939011L741.144 185.199L743.894 190.022L877.526 424.405L948.487 539.924Z" fill="url(#paint1_linear)"/>
    <path d="M1313 540.857L1131.66 303.876L1042.77 187.708L956.851 307.024L878.483 415.891L788.851 540.364" fill="url(#paint2_linear)"/>
    <path opacity="0.4" d="M279.201 392.97L231.355 428.5L174.865 403.853L99.2016 423.058L198.831 305.26L279.201 392.97Z" fill="white"/>
    <path opacity="0.5" d="M742.101 186.848L726.073 218.038L690.134 176.336L650.757 218.038L628.501 170.648L592.549 218.038L582.276 187.714L558.322 218.038L515.521 187.714L485.257 199.808L637.061 2.58739L742.101 186.848Z" fill="white"/>
    <path opacity="0.6" d="M1131.66 303.876L1087.28 364.035L1051.33 316.636L996.549 365.931L956.851 307.024L1042.77 187.708L1131.66 303.876Z" fill="#FFFDFD"/>
    <defs>
        <linearGradient id="paint0_linear" x1="207.356" y1="305.26" x2="207.356" y2="540.857" gradientUnits="userSpaceOnUse">
            <stop stop-color="#6F31BE"/>
            <stop offset="1" stop-color="#2D1654"/>
        </linearGradient>
        <linearGradient id="paint1_linear" x1="581.414" y1="0.939011" x2="581.414" y2="539.924" gradientUnits="userSpaceOnUse">
            <stop stop-color="#793CC7"/>
            <stop offset="0.973958" stop-color="#2D1654"/>
        </linearGradient>
        <linearGradient id="paint2_linear" x1="1050.93" y1="187.708" x2="1050.93" y2="540.857" gradientUnits="userSpaceOnUse">
            <stop stop-color="#7858A0"/>
            <stop offset="1" stop-color="#270B4A"/>
        </linearGradient>
    </defs>
</svg>
