<svg width="250" height="250" viewBox="0 0 250 250" fill="none" xmlns="http://www.w3.org/2000/svg">
<circle cx="125" cy="125" r="125" fill="black"/>
<path opacity="0.1" d="M125 125.5C125 115.835 116.941 108 107 108C97.0589 108 89 115.835 89 125.5C89 135.165 97.0589 143 107 143C116.941 143 125 135.165 125 125.5Z" fill="black"/>
<ellipse opacity="0.2" cx="32" cy="131" rx="18" ry="20" fill="black"/>
<ellipse opacity="0.1" cx="199" cy="131" rx="18" ry="20" fill="black"/>
<ellipse opacity="0.1" cx="147.5" cy="204" rx="22.5" ry="23" fill="black"/>
<ellipse opacity="0.1" cx="81" cy="70" rx="17" ry="19" fill="black"/>
<path opacity="0.2" d="M152 92C152 98.0751 147.075 103 141 103C134.925 103 130 98.0751 130 92C130 85.9249 134.925 81 141 81C147.075 81 152 85.9249 152 92Z" fill="black"/>
<path opacity="0.2" d="M152 139C152 143.418 148.418 147 144 147C139.582 147 136 143.418 136 139C136 134.582 139.582 131 144 131C148.418 131 152 134.582 152 139Z" fill="black"/>
<path opacity="0.2" d="M32 84C32 88.4183 28.4183 92 24 92C19.5817 92 16 88.4183 16 84C16 79.5817 19.5817 76 24 76C28.4183 76 32 79.5817 32 84Z" fill="black"/>
<path opacity="0.2" d="M225 159C225 163.418 221.418 167 217 167C212.582 167 209 163.418 209 159C209 154.582 212.582 151 217 151C221.418 151 225 154.582 225 159Z" fill="black"/>
<path opacity="0.2" d="M75 181C75 187.075 70.0751 192 64 192C57.9249 192 53 187.075 53 181C53 174.925 57.9249 170 64 170C70.0751 170 75 174.925 75 181Z" fill="black"/>
<ellipse opacity="0.2" cx="117" cy="30" rx="10" ry="11" fill="black"/>
<ellipse opacity="0.1" cx="179" cy="61" rx="18" ry="20" fill="black"/>
</svg>
