<svg width="887" height="793" viewBox="0 0 887 793" fill="none" xmlns="http://www.w3.org/2000/svg">
<path d="M437 166C440.866 166 444 162.866 444 159C444 155.134 440.866 152 437 152C433.134 152 430 155.134 430 159C430 162.866 433.134 166 437 166Z" fill="#FF6584"/>
<path d="M454.5 762C655.256 762 818 599.703 818 399.5C818 199.297 655.256 37 454.5 37C253.745 37 91 199.297 91 399.5C91 599.703 253.745 762 454.5 762Z" fill="#005898"/>
<path d="M454.5 762C655.256 762 818 599.703 818 399.5C818 199.297 655.256 37 454.5 37C253.745 37 91 199.297 91 399.5C91 599.703 253.745 762 454.5 762Z" fill="url(#paint0_linear)"/>
<path opacity="0.2" d="M366 189C394.167 189 417 166.167 417 138C417 109.833 394.167 87 366 87C337.833 87 315 109.833 315 138C315 166.167 337.833 189 366 189Z" fill="black"/>
<path opacity="0.2" d="M377.5 441C405.39 441 428 418.167 428 390C428 361.833 405.39 339 377.5 339C349.61 339 327 361.833 327 390C327 418.167 349.61 441 377.5 441Z" fill="black"/>
<path opacity="0.2" d="M378 193C410.585 193 437 168.152 437 137.5C437 106.848 410.585 82 378 82C345.415 82 319 106.848 319 137.5C319 168.152 345.415 193 378 193Z" fill="black"/>
<path opacity="0.2" d="M579 261C607.167 261 630 237.943 630 209.5C630 181.057 607.167 158 579 158C550.833 158 528 181.057 528 209.5C528 237.943 550.833 261 579 261Z" fill="black"/>
<path opacity="0.2" d="M550 678C598.601 678 638 638.153 638 589C638 539.847 598.601 500 550 500C501.399 500 462 539.847 462 589C462 638.153 501.399 678 550 678Z" fill="black"/>
<path opacity="0.2" d="M165.5 463C177.374 463 187 453.15 187 441C187 428.85 177.374 419 165.5 419C153.626 419 144 428.85 144 441C144 453.15 153.626 463 165.5 463Z" fill="black"/>
<path opacity="0.2" d="M442 263C448.627 263 454 258.075 454 252C454 245.925 448.627 241 442 241C435.373 241 430 245.925 430 252C430 258.075 435.373 263 442 263Z" fill="black"/>
<path opacity="0.2" d="M339 557C347.284 557 354 549.837 354 541C354 532.163 347.284 525 339 525C330.716 525 324 532.163 324 541C324 549.837 330.716 557 339 557Z" fill="black"/>
<path opacity="0.2" d="M691.5 317C697.851 317 703 311.851 703 305.5C703 299.149 697.851 294 691.5 294C685.149 294 680 299.149 680 305.5C680 311.851 685.149 317 691.5 317Z" fill="black"/>
<path opacity="0.2" d="M595 444C604.389 444 612 436.165 612 426.5C612 416.835 604.389 409 595 409C585.611 409 578 416.835 578 426.5C578 436.165 585.611 444 595 444Z" fill="black"/>
<path opacity="0.2" d="M222.5 254C234.926 254 245 243.703 245 231C245 218.297 234.926 208 222.5 208C210.074 208 200 218.297 200 231C200 243.703 210.074 254 222.5 254Z" fill="black"/>
<defs>
<linearGradient id="paint0_linear" x1="454.5" y1="37" x2="454.5" y2="762" gradientUnits="userSpaceOnUse">
<stop stop-color="#FF6584"/>
<stop offset="0.0001" stop-color="#C92748"/>
<stop offset="1" stop-color="#FF9A03" stop-opacity="0.99"/>
</linearGradient>
</defs>
</svg>
