<svg width="80%" height="727" viewBox="0 0 731 727" fill="none"
    xmlns="http://www.w3.org/2000/svg">
    <path d="M192.525 418.257C190.397 416.752 188.121 415.468 185.732 414.425C132.503 391.184 32.8164 490.905 32.8164 490.905L21.6575 479.607C21.6575 479.607 61.1959 433.529 107.306 357.361C148.773 288.816 254.874 297.182 275.755 299.539C278.094 299.816 279.366 299.993 279.366 299.993C315.145 378.628 192.525 418.257 192.525 418.257Z" fill="#2853A4"/>
    <path opacity="0.2" d="M281.768 305.913C281.066 303.978 280.293 302.028 279.386 300.043C279.386 300.043 278.129 299.88 275.776 299.589C254.895 297.232 148.794 288.866 107.327 357.411C61.2168 433.579 21.6575 479.607 21.6575 479.607L27.9327 485.96C27.9327 485.96 67.5062 439.918 113.582 363.715C154.849 295.479 260.216 303.474 281.768 305.913Z" fill="white"/>
    <path d="M367.819 621.158C291.05 666.283 244.555 705.289 244.555 705.289L233.375 693.97C233.375 693.97 338.922 591.131 310.059 538.498C309.447 537.344 308.764 536.23 308.015 535.161C308.015 535.161 349.142 413.021 427.334 449.81C427.334 449.81 427.476 450.822 427.669 452.712C429.672 471.859 437.669 580.07 367.819 621.158Z" fill="#2853A4"/>
    <path opacity="0.1" d="M192.525 418.257C190.397 416.752 188.121 415.468 185.732 414.425C212.836 373.949 242.922 335.552 275.741 299.554C278.08 299.83 279.351 300.007 279.351 300.007C315.146 378.628 192.525 418.257 192.525 418.257Z" fill="black"/>
    <path opacity="0.1" d="M427.676 452.747C390.842 484.479 351.501 513.177 310.037 538.561C309.425 537.408 308.743 536.294 307.993 535.225C307.993 535.225 349.121 413.085 427.312 449.874C427.319 449.824 427.462 450.836 427.676 452.747Z" fill="black"/>
    <path d="M289.496 547.492C269.842 559.032 249.103 570.291 227.279 581.266C227.279 581.266 175.704 582 141.549 494.465C141.549 494.465 152.781 471.257 175.511 435.483C225.47 356.808 331.032 217.369 495.002 130.379C544.188 104.12 596.496 84.1835 650.682 71.0421C650.682 71.0421 645.479 140.216 597.744 234.362C550.009 328.509 459.698 447.614 289.496 547.492Z" fill="#292B32"/>
    <path d="M397.409 340.089C425.208 368.236 470.56 368.517 498.707 340.718C526.853 312.919 527.135 267.567 499.336 239.42C471.537 211.274 426.184 210.992 398.038 238.791C369.891 266.59 369.61 311.943 397.409 340.089Z" fill="#8C9AB4"/>
    <path d="M484.041 325.926C477.196 332.686 468.573 337.363 459.175 339.414C449.776 341.465 439.988 340.805 430.95 337.511C421.912 334.217 413.994 328.425 408.119 320.807C402.244 313.19 398.653 304.061 397.762 294.482C397.338 289.797 397.56 285.075 398.422 280.45C398.803 278.379 399.314 276.335 399.952 274.329C402.449 266.508 406.808 259.411 412.653 253.647C412.945 253.359 413.23 253.077 413.514 252.796C421.426 245.348 431.516 240.63 442.305 239.332C453.094 238.035 464.014 240.228 473.466 245.588C477.055 247.656 480.386 250.14 483.391 252.99L484.459 254.071C489.151 258.816 492.862 264.439 495.38 270.618C497.898 276.798 499.175 283.413 499.136 290.085C499.097 296.758 497.744 303.358 495.154 309.507C492.564 315.657 488.788 321.236 484.041 325.926Z" fill="#6C63FF"/>
    <path d="M598.473 235.1C513.68 204.62 495.723 131.067 495.723 131.067C544.917 104.827 597.229 84.9092 651.418 71.787C651.418 71.787 646.215 140.961 598.473 235.1Z" fill="#2853A4"/>
    <path d="M289.496 547.492C276.182 555.301 262.381 562.981 248.093 570.534C241.287 574.145 234.354 577.713 227.293 581.238C227.293 581.238 175.719 581.972 141.564 494.437C141.564 494.437 145.21 486.901 152.525 473.772C158.074 463.879 165.721 450.831 175.504 435.434C175.504 435.434 188.321 467.921 220.357 500.357C240.079 520.463 263.574 536.48 289.496 547.492Z" fill="#8C9AB4"/>
    <path d="M248.093 570.534C241.287 574.145 234.354 577.713 227.294 581.238C227.294 581.238 175.719 581.972 141.564 494.437C141.564 494.437 145.21 486.901 152.525 473.772C152.518 473.765 196.313 554.112 248.093 570.534Z" fill="#292B32"/>
    <path opacity="0.2" d="M473.537 245.56L473.403 245.538L413.578 252.761C413.294 253.043 413.009 253.324 412.717 253.612C406.872 259.376 402.513 266.473 400.016 274.294L483.476 252.976L473.537 245.56Z" fill="white"/>
    <path opacity="0.2" d="M451.221 284.158L397.791 294.454C397.367 289.769 397.589 285.047 398.451 280.422L451.24 278.883L451.221 284.158Z" fill="white"/>
    <path opacity="0.2" d="M155.126 508.183C155.126 508.183 166.365 484.967 189.087 449.201C239.053 370.519 344.615 231.079 508.585 144.089C552.885 120.484 599.718 101.978 648.188 88.9238C650.182 77.4384 650.654 71.0278 650.654 71.0278C596.474 84.1561 544.171 104.079 494.988 130.322C331.018 217.312 225.456 356.751 175.49 435.434C152.767 471.2 141.529 494.416 141.529 494.416C155.032 528.993 171.244 549.791 185.917 562.313C175.268 549.752 164.55 532.312 155.126 508.183Z" fill="white"/>
</svg>
